<svg width="56" height="56" viewBox="0 0 56 56" fill="none" xmlns="http://www.w3.org/2000/svg"><path d="M11.4 16.1a4 4 0 014-4h28.1a4 4 0 014 4l-.4 23.6a4 4 0 01-4 4l-27.6.7a4 4 0 01-4.1-4V16z" fill="#B8DDF0"/><path d="M30.2 35c4.4-5.3 9.8-13.6 9.8-13.6S35.7 20 35.2 20c-6.9.4-14.4 4.3-16.2 12.1 0 0 4 5.9 5.9 5.9 2 0 5.3-3 5.3-3z" fill="#fff"/><path d="M16 10.8l-3.8.1c-1 0-2.1.2-3.1.1-1.1 0-1.6-.8-.5-1.5 1.8-1.3 1.4 2.6 1.4 3.7l.1 5.3c.1 1.6 2.6 1.6 2.5 0l-.1-5.7c0-1.4.2-3.2-.4-4.5-1-1.9-3.6-2.1-5.1-.7-1.6 1.3-2.4 4.1-.3 5.3 1.3.8 3.1.5 4.6.5h4.6c1.6 0 1.6-2.6 0-2.6zM41 13.1c3 0 6.4 0 9.4-.8 2.2-.6 3.2-3 1.7-4.9a3.5 3.5 0 00-5.5.3c-.9 1.4-.7 3.1-.7 4.7v5.5c0 1.7 2.4 1.7 2.4 0v-4.8c0-.8-.2-2 0-2.8.1-1.2.5-1.8 1.4-1.6.7.6.7 1 .2 1.1-.6.8-3.4.5-4.3.6-1.5.2-3.1.2-4.7.2-1.5 0-1.5 2.5.1 2.5zM12.3 26V26H9.8v6.8h2.5v-1.4H9.8v1.2c0 1.6 2.5 1.6 2.5 0v-1.1c0-1.6-2.5-1.6-2.5 0v1.3c0 1.6 2.5 1.6 2.5 0v-6.8c0-1.6-2.5-1.6-2.5 0v.2c0 1.5 2.5 1.5 2.5 0zM25.2 13.6h6.3c1.6 0 1.6-2.5 0-2.6l-6.3.1c-1.6.1-1.6 2.6 0 2.5zM45.9 25.1v6.6h2.5v-2.6c0-1.6-2.5-1.6-2.5 0v2.6c0 1.7 2.5 1.7 2.5 0v-6.6c0-1.6-2.5-1.6-2.5 0zM9.8 40.1l.1 2.6c0 1 .4 3.4 0 4.3-.9 1.3-2-.6-1-1.3.4-.3 1.6 0 2.2 0h4.8c1.6-.1 1.6-2.6 0-2.6h-5.5c-1.1 0-2.3 0-3.3.7-1.9 1.4-1.4 4.1.2 5.4 1.8 1.4 4.2 1 5-1.3.7-2.4.2-5.3.1-7.8-.2-1.6-2.7-1.6-2.6 0zM24.7 45.5l8-.2c1.5 0 1.5-2.5 0-2.5-2.7.1-5.3 0-8 .2-1.6 0-1.6 2.5 0 2.5zM45.8 39.6v4c-.2 1.3-.2 2.5.6 3.7 1.2 1.7 3.5 2.7 5 .8 1.3-1.5 1.2-4-.4-5.1-1.3-.9-2.7-.7-4.2-.6l-4.9.1c-1.6 0-1.6 2.5 0 2.5l4.7-.1c.6 0 1.5-.3 2.1-.1.6.1 1.6.9 1 1.6-.4.4-.6.2-1-.3-.7-.7-.5-1.6-.4-2.5v-4c0-1.6-2.6-1.6-2.5 0zM35.3 19.2c-1.5-2-4.8-1-6.7-.2a16.7 16.7 0 00-7.6 6.8c-1.8 3-3 6.6-1 9.8 1.6 2.6 4.7 2.9 7.3 1.8 3.2-1.3 5.8-4.5 8-7.2l3-4.9c.7-1.4 1.7-3 1.7-4.8 0-2.7-2.4-3.2-4.2-1.7a21.5 21.5 0 00-5 7.3c-1.8 3.4-2.5 6.8.6 9.6 3.3 3 6.2 1.4 9.2-1.2 1.2-1-.5-2.7-1.6-1.7-1.4 1.1-2.9 2.8-4.8 2a4.2 4.2 0 01-2.6-4.3c.3-2.4 2-5 3.4-7 .5-.8 1-1.6 1.6-2.2 1.7-1.7.9.3.4 1.4-1.2 2.5-2.7 5-4.4 7.1-1.7 2-3.7 4.4-6.2 5.4-4.1 1.7-6-2.6-4.5-6.1 1.2-2.6 3.2-5.2 5.5-6.8 1.1-.8 5-2.9 6.2-1.4 1 1.2 2.7-.5 1.7-1.7z" fill="#1E2882"/></svg>